<svg width="474" height="178" viewBox="0 0 474 178" fill="none" xmlns="http://www.w3.org/2000/svg">
<g clip-path="url(#clip0_2336_328)">
<path d="M51.5 5.5H70.5L104.5 107.5H86.5L60.5 21.5L33.5 107.5H18.5L51.5 5.5Z" fill="white"/>
<path d="M140.5 5.5H212.5V21.5H184.5V107.5H167.5V20.5H140.5V5.5Z" fill="white"/>
<path d="M315 6H257V21H315V6Z" fill="white"/>
<path d="M315 47H257V62H315V47Z" fill="white"/>
<path d="M315 92H257V107H315V92Z" fill="white"/>
<path d="M359 107H375L379 39L401 96H407V71L383 5H364L359 107Z" fill="white"/>
<path d="M455 107H439L435 39L413 96H407V71L431 5H450L455 107Z" fill="white"/>
<path d="M18 115H199L204 137L214 73L223 137L229 115H455V122H234L222 167L214 120L206 173L194 122H18V115Z" fill="white"/>
</g>
<defs>
<clipPath id="clip0_2336_328">
<rect width="437" height="168" fill="white" transform="translate(18 5)"/>
</clipPath>
</defs>
</svg>
